<svg xmlns="http://www.w3.org/2000/svg" width="520" height="320" viewBox="0 0 520 320" fill="none">
  <defs>
    <linearGradient id="g-bg" x1="0" y1="0" x2="1" y2="1">
      <stop offset="0" stop-color="#0ea5e9" stop-opacity="0.55"/>
      <stop offset="1" stop-color="#7c3aed" stop-opacity="0.30"/>
    </linearGradient>
    <linearGradient id="g-border" x1="0" y1="0" x2="1" y2="1">
      <stop offset="0" stop-color="#22d3ee"/>
      <stop offset="1" stop-color="#a78bfa"/>
    </linearGradient>
    <linearGradient id="g-cta" x1="0" y1="0" x2="1" y2="1">
      <stop offset="0" stop-color="#06b6d4"/>
      <stop offset="1" stop-color="#60a5fa"/>
    </linearGradient>
    <filter id="f-soft" x="-20%" y="-20%" width="140%" height="140%">
      <feGaussianBlur stdDeviation="24"/>
    </filter>
    <filter id="f-shadow" x="-20%" y="-20%" width="140%" height="140%">
      <feDropShadow dx="0" dy="14" stdDeviation="16" flood-color="#000" flood-opacity="0.45"/>
    </filter>
    <pattern id="p-grid" width="16" height="16" patternUnits="userSpaceOnUse">
      <path d="M16 0H0V16" stroke="rgba(255,255,255,0.07)" stroke-width="1"/>
    </pattern>
    <linearGradient id="g-shine" x1="0" y1="0" x2="1" y2="0">
      <stop offset="0" stop-color="#fff" stop-opacity="0"/>
      <stop offset="0.5" stop-color="#fff" stop-opacity="0.5"/>
      <stop offset="1" stop-color="#fff" stop-opacity="0"/>
    </linearGradient>
    <clipPath id="clip-card">
      <rect x="36" y="38" width="448" height="244" rx="18"/>
    </clipPath>
  </defs>

  <!-- background -->
  <rect x="0" y="0" width="520" height="320" rx="24" fill="#0b1220"/>
  <g filter="url(#f-soft)">
    <ellipse cx="420" cy="70" rx="100" ry="64" fill="#22d3ee"/>
    <ellipse cx="90" cy="260" rx="120" ry="76" fill="#7c3aed"/>
  </g>

  <!-- tilted glass card with gradient border -->
  <g filter="url(#f-shadow)" transform="translate(0,0)">
    <g transform="rotate(-2 260 160)">
      <rect x="36" y="38" width="448" height="244" rx="18" fill="#0f1b2d"/>
      <rect x="36" y="38" width="448" height="244" rx="18" fill="#ffffff" fill-opacity="0.04"/>
      <rect x="35" y="37" width="450" height="246" rx="19" fill="none" stroke="url(#g-border)" stroke-width="2"/>
      <rect x="36" y="38" width="448" height="48" rx="18" fill="#0b1628"/>
      <g transform="translate(52,58)">
        <circle cx="0" cy="0" r="5" fill="#ef4444"/>
        <circle cx="14" cy="0" r="5" fill="#f59e0b"/>
        <circle cx="28" cy="0" r="5" fill="#22c55e"/>
      </g>
      <rect x="52" y="104" width="416" height="160" rx="12" fill="url(#p-grid)"/>
      <!-- shine -->
      <rect x="36" y="38" width="448" height="244" rx="18" fill="url(#g-shine)" opacity="0.25"/>
    </g>
  </g>

  <!-- code blocks / UI elements -->
  <g transform="rotate(-2 0 0)">
    <rect x="66" y="116" width="132" height="12" rx="6" fill="#60a5fa"/>
    <rect x="66" y="136" width="96" height="8" rx="4" fill="rgba(148,163,184,0.9)"/>
    <rect x="66" y="152" width="180" height="8" rx="4" fill="rgba(148,163,184,0.7)"/>
    <rect x="66" y="168" width="146" height="8" rx="4" fill="rgba(148,163,184,0.6)"/>

    <rect x="66" y="194" width="128" height="12" rx="6" fill="#22d3ee"/>
    <rect x="66" y="214" width="156" height="8" rx="4" fill="rgba(148,163,184,0.85)"/>
    <rect x="66" y="230" width="118" height="8" rx="4" fill="rgba(148,163,184,0.6)"/>

    <rect x="308" y="192" width="86" height="36" rx="10" fill="url(#g-cta)"/>
    <rect x="308" y="192" width="86" height="36" rx="10" fill="#ffffff" fill-opacity="0.06"/>
    <circle cx="324" cy="210" r="4" fill="#0b1220"/>
    <rect x="334" y="202" width="48" height="14" rx="6" fill="#0b1220" fill-opacity="0.45"/>
  </g>

  <!-- decorative foreground blob -->
  <path d="M474 118c-10-18-36-26-57-20-22 6-40 26-42 49-2 23 12 48 33 57 20 9 46 2 60-15 13-17 16-43 6-61z" fill="url(#g-bg)" opacity="0.55"/>

  <!-- sparkles -->
  <g fill="#eab308" opacity="0.95">
    <circle cx="462" cy="82" r="2"/>
    <circle cx="96" cy="210" r="2"/>
    <circle cx="260" cy="58" r="2"/>
  </g>
</svg>

